<svg xmlns="http://www.w3.org/2000/svg" width="800" height="800" viewBox="0 0 800 800">
  <rect width="800" height="800" fill="#fffdf8"/>
  <rect x="30" y="30" width="740" height="740" rx="30" fill="none" stroke="#214b3a" stroke-width="8"/>
  <g fill="#214b3a">
    <rect x="110" y="110" width="180" height="180" rx="12"/>
    <rect x="510" y="110" width="180" height="180" rx="12"/>
    <rect x="110" y="510" width="180" height="180" rx="12"/>
  </g>
  <g fill="#fffdf8">
    <rect x="145" y="145" width="110" height="110" rx="8"/>
    <rect x="545" y="145" width="110" height="110" rx="8"/>
    <rect x="145" y="545" width="110" height="110" rx="8"/>
  </g>
  <g fill="#214b3a" opacity=".88">
    <rect x="350" y="350" width="55" height="55"/>
    <rect x="430" y="350" width="35" height="120"/>
    <rect x="510" y="360" width="80" height="40"/>
    <rect x="330" y="450" width="100" height="40"/>
    <rect x="470" y="500" width="45" height="110"/>
    <rect x="555" y="470" width="100" height="45"/>
    <rect x="340" y="565" width="80" height="50"/>
  </g>
  <text x="400" y="735" text-anchor="middle" font-family="Arial, sans-serif" font-size="30" fill="#214b3a">QR NHÀ GÁI</text>
  <text x="400" y="775" text-anchor="middle" font-family="Arial, sans-serif" font-size="22" fill="#6a746e">THAY ẢNH QR TẠI ĐÂY</text>
</svg>